<?xml version="1.0" encoding="utf-8"?>
<!-- Generator: Adobe Illustrator 23.0.1, SVG Export Plug-In . SVG Version: 6.00 Build 0)  -->
<svg version="1.1" id="Layer_1" xmlns="http://www.w3.org/2000/svg" xmlns:xlink="http://www.w3.org/1999/xlink" x="0px"
	y="0px" viewBox="0 0 512 512" style="enable-background:new 0 0 512 512;" xml:space="preserve">
	<path fill="#3493db" d="M452,512H60c-33.1,0-60-26.9-60-60V60C0,26.9,26.9,0,60,0h392c33.1,0,60,26.9,60,60v392C512,485.1,485.1,512,452,512z
	 M60,40c-11,0-20,9-20,20v392c0,11,9,20,20,20h392c11,0,20-9,20-20V60c0-11-9-20-20-20H60z" />
	<path fill="#3493db" d="M521,598" />
	<rect fill="#3493db" x="110" y="236" width="292" height="40" />
</svg>