<?xml version="1.0" encoding="utf-8"?>
<!-- Generator: Adobe Illustrator 23.0.1, SVG Export Plug-In . SVG Version: 6.00 Build 0)  -->
<svg version="1.1" id="Layer_1" xmlns="http://www.w3.org/2000/svg" xmlns:xlink="http://www.w3.org/1999/xlink" x="0px"
	y="0px" viewBox="0 0 24 24" style="enable-background:new 0 0 24 24;" xml:space="preserve">
	<style type="text/css">
		.st0 {
			fill: none;
		}
	</style>
	<path class="st0" d="M-2-2h28v28H-2V-2z" />
	<path fill="#3493db" d="M10.8,19c0,1.3-1.1,2.3-2.3,2.3S6.2,20.3,6.2,19c0-1.3,1.1-2.3,2.3-2.3S10.8,17.7,10.8,19z M8.5,9.7c-1.3,0-2.3,1.1-2.3,2.3
	s1.1,2.3,2.3,2.3s2.3-1.1,2.3-2.3S9.8,9.7,8.5,9.7z M8.5,2.7C7.2,2.7,6.2,3.7,6.2,5s1.1,2.3,2.3,2.3s2.3-1.1,2.3-2.3
	S9.8,2.7,8.5,2.7z M15.5,7.3c1.3,0,2.3-1.1,2.3-2.3s-1.1-2.3-2.3-2.3c-1.3,0-2.3,1.1-2.3,2.3S14.2,7.3,15.5,7.3z M15.5,9.7
	c-1.3,0-2.3,1.1-2.3,2.3s1.1,2.3,2.3,2.3c1.3,0,2.3-1.1,2.3-2.3S16.8,9.7,15.5,9.7z M15.5,16.7c-1.3,0-2.3,1.1-2.3,2.3
	c0,1.3,1.1,2.3,2.3,2.3c1.3,0,2.3-1.1,2.3-2.3C17.8,17.7,16.8,16.7,15.5,16.7z" />
</svg>