<?xml version="1.0" encoding="utf-8"?>
<!-- Generator: Adobe Illustrator 23.0.1, SVG Export Plug-In . SVG Version: 6.00 Build 0)  -->
<svg version="1.1" id="Layer_1" xmlns="http://www.w3.org/2000/svg" xmlns:xlink="http://www.w3.org/1999/xlink" x="0px"
	y="0px" viewBox="0 0 500 500" style="enable-background:new 0 0 500 500;" xml:space="preserve">
	<title>17</title>
	<g>
		<path fill="#3493db" d="M495.9,17.9v-4.2l-1.2-2.4l-1.2-1.8l-3-3.6l0,0l-4.8-3.6L484,1.2L481.6,0H343.1c-13.2,0-23.9,10.7-23.9,23.9
		s10.7,23.9,23.9,23.9h71.6L200.5,260.2c-9.4,9.4-9.4,24.6,0,34s24.6,9.4,34,0l0,0L448.8,80v71.6c0,13.2,10.7,23.9,23.9,23.9
		c13.2,0,23.9-10.7,23.9-23.9V22.1l0,0C496.4,20.7,496.2,19.3,495.9,17.9z" />
		<path fill="#3493db" d="M81.1,485.2H364c39.6,0,71.6-32.1,71.6-71.6V244.7c0-13.2-10.7-23.9-23.9-23.9c-13.2,0-23.9,10.7-23.9,23.9v168.9
		c0,13.2-10.7,23.9-23.9,23.9H81.1c-13.2,0-23.9-10.7-23.9-23.9V130.7c0-13.2,10.7-23.9,23.9-23.9H250c13.2,0,23.9-10.7,23.9-23.9
		S263.2,59.1,250,59.1H81.1c-39.6,0-71.6,32.1-71.6,71.6v282.9C9.5,453.1,41.6,485.2,81.1,485.2z" />
	</g>
</svg>