<?xml version="1.0" encoding="utf-8"?>
<!-- Generator: Adobe Illustrator 24.1.0, SVG Export Plug-In . SVG Version: 6.00 Build 0)  -->
<svg version="1.1" id="Layer_1" xmlns="http://www.w3.org/2000/svg" xmlns:xlink="http://www.w3.org/1999/xlink" x="0px" y="0px"
	 viewBox="0 0 24 24" style="enable-background:new 0 0 24 24;" xml:space="preserve">
<style type="text/css">
	.st0{fill:none;}
	.st1{fill:#CCCCCC;}
</style>
<path class="st0" d="M-2.6-2.6h29.3v29.3H-2.6V-2.6z"/>
<path class="st1" d="M17,12c0,1.3,1.1,2.4,2.4,2.4s2.4-1.1,2.4-2.4s-1.1-2.4-2.4-2.4C18,9.5,17,10.6,17,12z M14.4,12
	c0-1.3-1.1-2.4-2.4-2.4S9.7,10.7,9.7,12s1.1,2.4,2.4,2.4S14.4,13.3,14.4,12z M7.2,12c0-1.3-1.1-2.4-2.4-2.4S2.3,10.7,2.3,12
	s1.1,2.4,2.4,2.4S7.2,13.3,7.2,12z"/>
</svg>
