<?xml version="1.0" encoding="utf-8"?>
<!-- Generator: Adobe Illustrator 23.0.1, SVG Export Plug-In . SVG Version: 6.00 Build 0)  -->
<svg version="1.1" id="Layer_1" xmlns="http://www.w3.org/2000/svg" xmlns:xlink="http://www.w3.org/1999/xlink" x="0px"
	y="0px" viewBox="0 0 24 24" style="enable-background:new 0 0 24 24;" xml:space="preserve">
	<style type="text/css">
		.st0 {
			fill: none;
		}
	</style>
	<path class="st0" d="M-2.6-2.6h29.3v29.3H-2.6V-2.6z" />
	<path fill="#444444" d="M4.7,10.8c-1.3,0-2.4-1.1-2.4-2.4s1.1-2.4,2.4-2.4S7.1,7,7.1,8.3S6,10.8,4.7,10.8z M14.4,8.3c0-1.3-1.1-2.4-2.4-2.4
	S9.6,7,9.6,8.3s1.1,2.4,2.4,2.4S14.4,9.7,14.4,8.3z M21.8,8.3c0-1.3-1.1-2.4-2.4-2.4c-1.3,0-2.4,1.1-2.4,2.4s1.1,2.4,2.4,2.4
	C20.7,10.8,21.8,9.7,21.8,8.3z M16.9,15.7c0,1.3,1.1,2.4,2.4,2.4c1.3,0,2.4-1.1,2.4-2.4s-1.1-2.4-2.4-2.4
	C18,13.2,16.9,14.3,16.9,15.7z M14.4,15.7c0-1.3-1.1-2.4-2.4-2.4s-2.4,1.1-2.4,2.4s1.1,2.4,2.4,2.4S14.4,17,14.4,15.7z M7.1,15.7
	c0-1.3-1.1-2.4-2.4-2.4s-2.4,1.1-2.4,2.4s1.1,2.4,2.4,2.4S7.1,17,7.1,15.7z" />
</svg>