<?xml version="1.0" encoding="utf-8"?>
<!-- Generator: Adobe Illustrator 24.1.0, SVG Export Plug-In . SVG Version: 6.00 Build 0)  -->
<svg version="1.1" id="Layer_1" xmlns="http://www.w3.org/2000/svg" xmlns:xlink="http://www.w3.org/1999/xlink" x="0px"
	y="0px" viewBox="0 0 24 24" style="enable-background:new 0 0 24 24;" xml:space="preserve">
	<style type="text/css">
		.st0 {
			fill: none;
		}

		.st1 {
			fill: #3493db;
		}
	</style>
	<path class="st0" d="M-2-2h28v28H-2V-2z" />
	<path class="st1" d="M14.3,19c0,1.3-1.1,2.3-2.3,2.3s-2.3-1-2.3-2.3s1.1-2.3,2.3-2.3S14.3,17.7,14.3,19z M12,9.7
	c-1.3,0-2.3,1.1-2.3,2.3s1.1,2.3,2.3,2.3s2.3-1.1,2.3-2.3S13.3,9.7,12,9.7z M12,2.7c-1.3,0-2.3,1-2.3,2.3s1.1,2.3,2.3,2.3
	s2.3-1.1,2.3-2.3S13.3,2.7,12,2.7z" />
</svg>